# xmcd CD database file
#
# Track frame offsets:
#	150
#	30064
#	56937
#	82339
#	110438
#	152787
#	173691
#	196365
#	216083
#	237868
#	264113
#
# Disc length: 3814 seconds
#
# Revision: 0
# Processed by: cddbd v1.5.2PL0 Copyright (c) Steve Scherf et al.
# Submitted via: CDex 1.70beta2
#
DISCID=8c0ee40b
DTITLE=Nicole Johänntgen - Moncaup
DYEAR=2015
DGENRE=Jazz
TTITLE0=Donnerwetter
TTITLE1=Fragile
TTITLE2=Sunday Pony Blues
TTITLE3=Waves
TTITLE4=Flugmodus
TTITLE5=Hello
TTITLE6=Cocaine
TTITLE7=When You Breathe
TTITLE8=The Owl
TTITLE9=Flying Leaves
TTITLE10=Nicha's Blues
EXTD=YEAR: 2015
EXTT0=
EXTT1=
EXTT2=
EXTT3=
EXTT4=
EXTT5=
EXTT6=
EXTT7=
EXTT8=
EXTT9=
EXTT10=
PLAYORDER=
